<?xml version="1.0" encoding="utf-8"?>
<!-- Generator: Adobe Illustrator 16.0.0, SVG Export Plug-In . SVG Version: 6.00 Build 0)  -->
<!DOCTYPE svg PUBLIC "-//W3C//DTD SVG 1.1//EN" "http://www.w3.org/Graphics/SVG/1.1/DTD/svg11.dtd">
<svg version="1.1" id="Layer_1" xmlns="http://www.w3.org/2000/svg" xmlns:xlink="http://www.w3.org/1999/xlink" x="0px" y="0px"
	 width="684px" height="684px" viewBox="42 42 684 684" enable-background="new 42 42 684 684" xml:space="preserve">
<polygon opacity="0.2" enable-background="new    " points="502.988,283.552 471.782,282.371 500.183,310.271 531.795,328.459 
	512.639,341.9 464.166,294.742 437.084,304.5 417.417,354.404 410.32,373.735 381.779,369.123 331.382,319.371 292.882,318.071 
	323.304,348.952 347.357,375.49 334.837,377.197 289.789,332.786 258.417,350.5 240.417,381.833 240.417,415.833 216.782,436.07 
	562.75,781 790.75,780.5 790.75,564 "/>
<g>
	<path fill="#FFFFFF" d="M476.031,280.371l-4.5,2l5.8,3.2c7.8,4.1,17.4,14.6,22.601,24.7c8.302,15.8,15.699,39.2,18.602,58.6
		c4.3,28.301-0.8,58.801-12.7,76.801c-2.1,3.199-3.6,6.1-3.399,6.398c0.302,0.201,3-0.398,6.102-1.398
		c10.6-3.301,19.898-14,25.5-29.201c4.5-12.4,6.3-23.699,6.2-40.199v-14.601l8.397-1.8c4.7-1.1,8.7-2.2,8.9-2.7
		c0.8-1.2-6.102-28.3-7.3-28.7c-0.5-0.1-4.4,0.6-8.5,1.6l-7.5,1.9l-1.302-4.6c-2-7.3-10.301-26.1-14.301-32.3
		C507.131,281.971,489.932,274.071,476.031,280.371z"/>
	<path fill="#FFFFFF" d="M435.331,290.671c-6.7,3.2-12.2,8.9-16.6,17.3c-6.2,11.9-9.7,28.5-9.7,46c0,8.8-0.101,9.3-2.2,9.8
		c-1.3,0.3-11.1,2.3-21.8,4.6c-10.7,2.2-20.4,4.2-21.6,4.5c-1.7,0.4-2.3-0.2-3.3-3.8c-6.4-21.4-17.5-40.6-29-49.7
		c-5.8-4.5-14.5-8.1-19.7-8.1c-4.7,0-13.3,2.6-16.3,4.9l-2.5,1.9l5.5,2.7c3.1,1.6,8.5,5.9,12.9,10.4c6,6.1,8.5,9.6,12.2,17.1
		c8.5,17.3,14,34.9,17.3,55c1.7,10.898,2,33.898,0.4,42.6c-2.4,14-9.7,30.4-16.8,38.199c-4.7,5.102-4,5.701,4.8,4.9
		c17.5-1.5,32.1-19.699,36.8-45.699c1-5.201,1.6-14.602,1.6-24.201c0.101-13.398,0.3-15.898,1.601-16.199
		c3.399-1,45.399-9.6,45.6-9.4c0.1,0.201,1.6,4.602,3.4,9.801c10.799,31.199,29.897,51.4,48.498,51.4
		c35.802-0.201,48.602-72.501,22.5-127.301c-11.5-24.2-26.198-37.8-41.898-38.8C441.631,288.271,439.631,288.571,435.331,290.671z
		 M462.432,332.671c11,8.3,18,23.9,19.302,42.6c0.698,10.2-2,22.401-6.2,28.901c-11.7,17.6-33.4,12.898-45-9.801
		c-1.7-3.4-1-5,2.198-5.1c0.602,0,1.802-0.201,2.502-0.5c0.897-0.4,2,0.697,3.1,3c2.601,5.398,9.5,12.299,13.4,13.398
		c12.3,3.396,20.698-14,17-35.201c-3.5-20.1-15.103-33.8-25.5-30.1c-3.7,1.3-7.9,7.2-9.301,12.9c-1.602,6.2-1.5,6.1-6.302,6.8
		l-3.8,0.6l0.602-4.2c3.101-20,14.499-30.5,29.301-27.2C456.631,329.471,460.531,331.171,462.432,332.671z"/>
	<path fill="#FFFFFF" d="M261.831,324.671c-6.2,1.7-12.1,5.7-15.9,10.9c-4.3,5.7-9.3,16.8-11.3,24.7c-2.3,9.5-3.9,26.5-3.1,34.6
		l0.6,7.1l-11,2.301c-9.1,1.9-11,2.602-10.7,3.9c0.3,0.898,1.7,7.398,3.2,14.6c1.4,7.102,2.7,13.102,2.9,13.299
		c0.1,0.104,4.6-0.697,10-1.799c5.3-1.1,10.1-2,10.5-2c0.5,0,1.6,2.4,2.5,5.199c5.1,15.801,16.3,34,26.2,42.701
		c8.2,7.299,13.5,9.6,22.8,9.6c7,0,8.6-0.398,12.8-2.801c27.5-16.199,31.7-80.799,8.3-127.5c-9.6-19.1-21.9-31.2-35.2-34.7
		C267.631,323.071,267.931,323.071,261.831,324.671z M277.631,363.771c14.1,4.2,24.8,23.1,26.1,46c1.3,23.398-8.8,39.5-24.7,39.5
		c-6.9,0-11.2-2-17-7.9c-5-5-9.8-11.801-8.8-12.6c0.2-0.102,1.9-0.5,3.8-0.9c3.3-0.6,3.7-0.301,6.3,3.9
		c3.7,5.699,7.8,8.6,13.1,9.199c18.4,2.1,21-41.199,3.6-60.102c-6.3-6.8-12.6-7.9-17.9-3.2c-3.1,2.8-7.1,11.3-7.1,15.3
		c0,3.602-0.7,4.201-5.7,5.4l-3.6,0.697l0.6-5.6c1.8-18.4,11.2-30.4,24.3-31.1C271.731,362.271,274.931,362.971,277.631,363.771z"/>
</g>
</svg>
