<?xml version="1.0" encoding="iso-8859-1"?>
<!-- Uploaded to: SVG Repo, www.svgrepo.com, Generator: SVG Repo Mixer Tools -->
<!DOCTYPE svg PUBLIC "-//W3C//DTD SVG 1.1//EN" "http://www.w3.org/Graphics/SVG/1.1/DTD/svg11.dtd">
<svg fill="#565D64" version="1.1" id="Capa_1" xmlns="http://www.w3.org/2000/svg" xmlns:xlink="http://www.w3.org/1999/xlink" 
	 viewBox="0 0 315 315" xml:space="preserve">
<g>
	<path d="M293,100.701h22l-22-27.681V73h-0.018L249,17.659H66L22.016,73H22v0.021L0,100.701h22v166.64H0v30h315v-30h-22V100.701z
		 M117.5,223.833v42.209H52V103h211v163.042h-65.5v-42.209H117.5z"/>
	<rect x="67.5" y="123.833" width="30" height="30"/>
	<rect x="117.5" y="123.833" width="30" height="30"/>
	<rect x="167.5" y="123.833" width="30" height="30"/>
	<rect x="217.5" y="123.833" width="30" height="30"/>
	<rect x="67.5" y="173.833" width="30" height="30"/>
	<rect x="117.5" y="173.833" width="30" height="30"/>
	<rect x="167.5" y="173.833" width="30" height="30"/>
	<rect x="217.5" y="173.833" width="30" height="30"/>
	<rect x="67.5" y="223.833" width="30" height="30"/>
	<rect x="217.5" y="223.833" width="30" height="30"/>
</g>
</svg>